<mxfile host="app.diagrams.net" modified="2020-10-31T11:09:29.903Z" agent="5.0 (Macintosh; Intel Mac OS X 10_12_6) AppleWebKit/537.36 (KHTML, like Gecko) Chrome/86.0.4240.111 Safari/537.36" etag="pS5uRhSFtAgOAM7ss01s" version="13.8.8" type="github">
  <diagram id="0qEJbbTDvYGNgyf9TOm3" name="Page-1">
    <mxGraphModel dx="739" dy="528" grid="1" gridSize="10" guides="1" tooltips="1" connect="1" arrows="1" fold="1" page="1" pageScale="1" pageWidth="827" pageHeight="1169" math="0" shadow="0">
      <root>
        <mxCell id="0" />
        <mxCell id="1" parent="0" />
        <mxCell id="fDzprn89xcyUJ2DbJoEW-5" style="edgeStyle=orthogonalEdgeStyle;rounded=0;orthogonalLoop=1;jettySize=auto;html=1;exitX=1;exitY=0.5;exitDx=0;exitDy=0;" edge="1" parent="1" source="fDzprn89xcyUJ2DbJoEW-1" target="fDzprn89xcyUJ2DbJoEW-3">
          <mxGeometry relative="1" as="geometry" />
        </mxCell>
        <mxCell id="fDzprn89xcyUJ2DbJoEW-1" value="merge with df_outcome&lt;br&gt;&lt;br&gt;create df_merge" style="rounded=0;whiteSpace=wrap;html=1;" vertex="1" parent="1">
          <mxGeometry x="280" y="200" width="120" height="60" as="geometry" />
        </mxCell>
        <mxCell id="fDzprn89xcyUJ2DbJoEW-6" style="edgeStyle=orthogonalEdgeStyle;rounded=0;orthogonalLoop=1;jettySize=auto;html=1;exitX=1;exitY=0.5;exitDx=0;exitDy=0;entryX=0;entryY=0.5;entryDx=0;entryDy=0;" edge="1" parent="1" source="fDzprn89xcyUJ2DbJoEW-3" target="fDzprn89xcyUJ2DbJoEW-4">
          <mxGeometry relative="1" as="geometry" />
        </mxCell>
        <mxCell id="fDzprn89xcyUJ2DbJoEW-3" value="explore df_merge" style="rounded=0;whiteSpace=wrap;html=1;" vertex="1" parent="1">
          <mxGeometry x="480" y="200" width="120" height="60" as="geometry" />
        </mxCell>
        <mxCell id="fDzprn89xcyUJ2DbJoEW-4" value="feature engineering&lt;br&gt;&lt;br&gt;df_merge_fe" style="rounded=0;whiteSpace=wrap;html=1;" vertex="1" parent="1">
          <mxGeometry x="680" y="200" width="120" height="60" as="geometry" />
        </mxCell>
        <mxCell id="fDzprn89xcyUJ2DbJoEW-8" style="edgeStyle=orthogonalEdgeStyle;rounded=0;orthogonalLoop=1;jettySize=auto;html=1;exitX=1;exitY=0.5;exitDx=0;exitDy=0;entryX=0;entryY=0.5;entryDx=0;entryDy=0;" edge="1" parent="1" source="fDzprn89xcyUJ2DbJoEW-7" target="fDzprn89xcyUJ2DbJoEW-1">
          <mxGeometry relative="1" as="geometry" />
        </mxCell>
        <mxCell id="fDzprn89xcyUJ2DbJoEW-7" value="aggregate cÃ¡c df_component" style="rounded=0;whiteSpace=wrap;html=1;" vertex="1" parent="1">
          <mxGeometry x="80" y="200" width="120" height="60" as="geometry" />
        </mxCell>
      </root>
    </mxGraphModel>
  </diagram>
</mxfile>
